<?xml version="1.0" encoding="utf-8"?>
<!-- Generator: Adobe Illustrator 19.1.1, SVG Export Plug-In . SVG Version: 6.00 Build 0)  -->
<svg version="1.1" id="_x31_0" xmlns="http://www.w3.org/2000/svg" xmlns:xlink="http://www.w3.org/1999/xlink" x="0px" y="0px"
	 viewBox="0 0 512 512" style="enable-background:new 0 0 512 512;" xml:space="preserve">
<style type="text/css">
	.st0{fill:#374149;}
</style>
<g>
	<path class="st0" d="M339.591,163.975H172.409c-4.66,0-8.434,3.774-8.434,8.434v167.182c0,4.66,3.774,8.434,8.434,8.434h167.182
		c4.66,0,8.434-3.774,8.434-8.434V172.409C348.025,167.749,344.251,163.975,339.591,163.975z M303.377,208.623l-94.754,94.75
		c-4.98,4.98-13.41,1.449-13.41-5.535v-94.757c0-4.336,3.531-7.867,7.867-7.867h94.757
		C304.822,195.214,308.357,203.643,303.377,208.623z"/>
	<path class="st0" d="M427.762,407.364v-302.81h19.918l1.524,0.012c0-0.004,0-0.008,0-0.012h0.16
		c-1.606-21.105-18.051-37.89-38.894-40.429c-0.988-0.126-1.934-0.387-2.942-0.446v0.023c-0.054,0-0.106-0.019-0.16-0.023v20.558
		H104.632V64.789l0.008-0.946h-0.008v-0.164c-21.086,1.062-38.129,16.878-41.39,37.305c-0.187,1.14-0.508,2.238-0.606,3.41h0.027
		c-0.003,0.055-0.023,0.106-0.027,0.16h21.602v302.049v0.762H64.195l-1.399-0.008c0,0,0,0.004,0,0.008h-0.16
		c1.61,21.211,18.094,38.015,38.973,40.519c0.961,0.121,1.882,0.379,2.863,0.434v-0.019c0.054,0.004,0.106,0.019,0.16,0.023v-20.558
		h301.97h0.766v20.558c21.109-1.066,38.164-16.914,41.398-37.438c0.183-1.125,0.5-2.206,0.598-3.355h-0.027
		c0.003-0.058,0.023-0.11,0.027-0.164H427.762z M364.083,172.409v167.182c0,13.492-11,24.496-24.492,24.496H172.409
		c-13.492,0-24.492-11.004-24.492-24.496V172.409c0-13.492,11-24.496,24.492-24.496h167.182
		C353.083,147.913,364.083,158.917,364.083,172.409z"/>
	<path class="st0" d="M120.694,68.019v0.16h52.675v-4.66V43.125h-11.965c-2.246,0-4.015-1.77-4.015-4.016V0h-20.797v39.109
		c0,2.246-1.766,4.016-4.016,4.016h-11.882v20.394v4.484V68.019L120.694,68.019z"/>
	<path class="st0" d="M246.045,63.519V43.125h-11.969c-2.246,0-4.011-1.77-4.011-4.016V0h-20.718v39.109
		c0,2.246-1.848,4.016-4.098,4.016h-11.962v20.394v4.66h52.758V63.519z"/>
	<path class="st0" d="M318.634,63.519V43.125h-11.883c-2.25,0-4.015-1.77-4.015-4.016V0h-20.801v39.109
		c0,2.246-1.766,4.016-4.011,4.016h-11.965v20.394v4.66h52.675V63.519z"/>
	<path class="st0" d="M391.306,63.519V43.125h-11.965c-2.168,0-4.015-1.77-4.015-4.016V0H354.61v39.109
		c0,2.246-1.77,4.016-4.015,4.016H338.63v20.394v4.66h52.675V63.519z"/>
	<path class="st0" d="M338.63,448.481v20.313h11.965c2.246,0,4.015,1.847,4.015,4.098V512h20.797v-39.109
		c0-2.25,1.766-4.098,4.016-4.098h11.652h0.07l0,0h0.16v-20.313v-4.66H338.63V448.481z"/>
	<path class="st0" d="M265.959,448.481v20.313h11.965c2.246,0,4.011,1.847,4.011,4.098V512h20.718v-39.109
		c0-2.25,1.848-4.098,4.098-4.098h11.653h0.07l0,0h0.16v-20.313v-4.66h-52.675V448.481z"/>
	<path class="st0" d="M193.287,448.481v20.313h11.962c2.25,0,4.015,1.847,4.015,4.098V512h20.801v-39.109
		c0-2.25,1.766-4.098,4.011-4.098h11.734h0.07l0,0h0.164v-20.313v-4.66h-52.758V448.481z"/>
	<path class="st0" d="M120.694,448.481v20.094v0.062l0,0v0.157h11.965c2.168,0,4.015,1.847,4.015,4.098V512h20.637v-39.109
		c0-2.25,1.848-4.098,4.094-4.098h11.734h0.07l0,0h0.16v-20.313v-4.66h-52.675V448.481z"/>
	<path class="st0" d="M472.891,136.593c-2.246,0-4.012-1.766-4.012-4.016v-11.965h-19.355h-5.699v52.762h5.699h19.355v-11.969
		c0-2.25,1.766-4.015,4.012-4.015H512v-20.797H472.891z"/>
	<path class="st0" d="M468.879,205.249v-11.965h-19.355h-5.699v52.675h5.699h19.355v-11.883c0-2.246,1.766-4.015,4.012-4.015H512
		v-20.797h-39.109C470.645,209.264,468.879,207.498,468.879,205.249z"/>
	<path class="st0" d="M468.879,277.92v-11.961h-19.355h-5.523h-0.016l0,0h-0.16v52.675h5.699h19.355v-11.883
		c0-2.25,1.766-4.098,4.012-4.098h38.71h0.238l0,0H512v-20.718h-39.109C470.645,281.935,468.879,280.17,468.879,277.92z"/>
	<path class="st0" d="M468.879,350.595v-11.969h-19.355h-5.699v52.679h5.699h19.355v-11.965c0-2.25,1.766-4.012,4.012-4.012H512
		V354.61h-39.109C470.645,354.61,468.879,352.841,468.879,350.595z"/>
	<path class="st0" d="M68.179,338.626h-5.703H43.125v11.969c0,2.246-1.77,4.015-4.016,4.015H0.282l-0.118-0.004v0.004h-0.16v20.496
		L0,375.169h0.004v0.16h39.105c2.246,0,4.016,1.844,4.016,4.09v11.886h19.351h5.703V338.626z"/>
	<path class="st0" d="M0.004,302.654h39.105c2.246,0,4.016,1.848,4.016,4.016v11.965h19.351h5.703v-52.675h-5.703H43.343h-0.058l0,0
		h-0.16v11.961c0,2.168-1.77,4.015-4.016,4.015H0.004v20.496L0,302.494h0.004V302.654z"/>
	<path class="st0" d="M0.004,230.061h39.105c2.246,0,4.016,1.77,4.016,4.015v11.883h19.351h5.703v-52.675h-5.703H43.125v11.965
		c0,2.25-1.77,4.015-4.016,4.015H0.282H0.164l0,0h-0.16v20.574L0,229.901h0.004V230.061z"/>
	<path class="st0" d="M0.004,157.151v0.16h39.105c2.246,0,4.016,1.844,4.016,4.094v11.969h19.351h5.703v-52.762h-5.703H43.125
		v11.965c0,2.25-1.77,4.094-4.016,4.094H0.004v20.418L0,157.151H0.004z"/>
</g>
</svg>
